{
    "asset": {
        "version": "2.0",
        "generator": "Open Asset Import Library (assimp v5.0.5eb040c7)"
    },
    "accessors": [
        {
            "bufferView": 0,
            "byteOffset": 0,
            "componentType": 5126,
            "count": 2012,
            "type": "VEC3",
            "max": [
                5469.9609375,
                -1329.6219482421876,
                1041.8089599609376
            ],
            "min": [
                5083.47802734375,
                -1538.1319580078126,
                656.66650390625
            ]
        },
        {
            "bufferView": 1,
            "byteOffset": 0,
            "componentType": 5126,
            "count": 2012,
            "type": "VEC3",
            "max": [
                1.0,
                1.0,
                1.0
            ],
            "min": [
                -1.0,
                -1.0,
                -1.0
            ]
        },
        {
            "bufferView": 2,
            "byteOffset": 0,
            "componentType": 5125,
            "count": 4290,
            "type": "SCALAR",
            "max": [
                2011
            ],
            "min": [
                0
            ]
        },
        {
            "bufferView": 3,
            "byteOffset": 0,
            "componentType": 5126,
            "count": 1048,
            "type": "VEC3",
            "max": [
                5469.9609375,
                -1329.6219482421876,
                1041.8089599609376
            ],
            "min": [
                5083.47802734375,
                -1538.1319580078126,
                655.90966796875
            ]
        },
        {
            "bufferView": 4,
            "byteOffset": 0,
            "componentType": 5126,
            "count": 1048,
            "type": "VEC3",
            "max": [
                1.0,
                1.0,
                1.0
            ],
            "min": [
                -1.0,
                -1.0,
                -1.0
            ]
        },
        {
            "bufferView": 5,
            "byteOffset": 0,
            "componentType": 5125,
            "count": 2076,
            "type": "SCALAR",
            "max": [
                1047
            ],
            "min": [
                0
            ]
        },
        {
            "bufferView": 6,
            "byteOffset": 0,
            "componentType": 5126,
            "count": 491,
            "type": "VEC3",
            "max": [
                5469.19384765625,
                -1329.6219482421876,
                1027.4649658203126
            ],
            "min": [
                5083.47802734375,
                -1538.1319580078126,
                655.90966796875
            ]
        },
        {
            "bufferView": 7,
            "byteOffset": 0,
            "componentType": 5126,
            "count": 491,
            "type": "VEC3",
            "max": [
                1.0,
                1.0,
                1.0
            ],
            "min": [
                -1.0,
                -1.0,
                -1.0
            ]
        },
        {
            "bufferView": 8,
            "byteOffset": 0,
            "componentType": 5125,
            "count": 780,
            "type": "SCALAR",
            "max": [
                490
            ],
            "min": [
                0
            ]
        }
    ],
    "buffers": [
        {
            "byteLength": 113808,
            "uri": "result.bin"
        }
    ],
    "bufferViews": [
        {
            "buffer": 0,
            "byteOffset": 0,
            "byteLength": 24144,
            "target": 34962
        },
        {
            "buffer": 0,
            "byteOffset": 24144,
            "byteLength": 24144,
            "target": 34962
        },
        {
            "buffer": 0,
            "byteOffset": 48288,
            "byteLength": 17160,
            "target": 34963
        },
        {
            "buffer": 0,
            "byteOffset": 65448,
            "byteLength": 12576,
            "target": 34962
        },
        {
            "buffer": 0,
            "byteOffset": 78024,
            "byteLength": 12576,
            "target": 34962
        },
        {
            "buffer": 0,
            "byteOffset": 90600,
            "byteLength": 8304,
            "target": 34963
        },
        {
            "buffer": 0,
            "byteOffset": 98904,
            "byteLength": 5892,
            "target": 34962
        },
        {
            "buffer": 0,
            "byteOffset": 104796,
            "byteLength": 5892,
            "target": 34962
        },
        {
            "buffer": 0,
            "byteOffset": 110688,
            "byteLength": 3120,
            "target": 34963
        }
    ],
    "materials": [
        {
            "name": "kalmar_mat",
            "pbrMetallicRoughness": {
                "baseColorFactor": [
                    0.5879999995231628,
                    0.5879999995231628,
                    0.5879999995231628,
                    1.0
                ],
                "metallicFactor": 0.0,
                "roughnessFactor": 0.959750771522522
            }
        }
    ],
    "meshes": [
        {
            "name": "kalmar_LOD0",
            "primitives": [
                {
                    "mode": 4,
                    "material": 0,
                    "indices": 2,
                    "attributes": {
                        "POSITION": 0,
                        "NORMAL": 1
                    }
                }
            ]
        },
        {
            "name": "kalmar_LOD1",
            "primitives": [
                {
                    "mode": 4,
                    "material": 0,
                    "indices": 5,
                    "attributes": {
                        "POSITION": 3,
                        "NORMAL": 4
                    }
                }
            ]
        },
        {
            "name": "kalmar_LOD2",
            "primitives": [
                {
                    "mode": 4,
                    "material": 0,
                    "indices": 8,
                    "attributes": {
                        "POSITION": 6,
                        "NORMAL": 7
                    }
                }
            ]
        }
    ],
    "nodes": [
        {
            "name": "RootNode",
            "children": [
                1,
                5,
                9
            ]
        },
        {
            "name": "kalmar_LOD0_$AssimpFbx$_PreRotation",
            "matrix": [
                1.0,
                0.0,
                0.0,
                0.0,
                0.0,
                -4.371138828673793e-8,
                -1.0,
                0.0,
                0.0,
                1.0,
                -4.371138828673793e-8,
                0.0,
                0.0,
                0.0,
                0.0,
                1.0
            ],
            "children": [
                2
            ]
        },
        {
            "name": "kalmar_LOD0_$AssimpFbx$_Scaling",
            "matrix": [
                100.0,
                0.0,
                0.0,
                0.0,
                0.0,
                100.0,
                0.0,
                0.0,
                0.0,
                0.0,
                100.0,
                0.0,
                0.0,
                0.0,
                0.0,
                1.0
            ],
            "children": [
                3
            ]
        },
        {
            "name": "kalmar_LOD0_$AssimpFbx$_GeometricTranslation",
            "matrix": [
                1.0,
                0.0,
                0.0,
                0.0,
                0.0,
                1.0,
                0.0,
                0.0,
                0.0,
                0.0,
                1.0,
                0.0,
                -5276.7197265625,
                1433.876953125,
                -655.295654296875,
                1.0
            ],
            "children": [
                4
            ]
        },
        {
            "name": "kalmar_LOD0",
            "mesh": 0
        },
        {
            "name": "kalmar_LOD1_$AssimpFbx$_PreRotation",
            "matrix": [
                1.0,
                0.0,
                0.0,
                0.0,
                0.0,
                -4.371138828673793e-8,
                -1.0,
                0.0,
                0.0,
                1.0,
                -4.371138828673793e-8,
                0.0,
                0.0,
                0.0,
                0.0,
                1.0
            ],
            "children": [
                6
            ]
        },
        {
            "name": "kalmar_LOD1_$AssimpFbx$_Scaling",
            "matrix": [
                100.0,
                0.0,
                0.0,
                0.0,
                0.0,
                100.0,
                0.0,
                0.0,
                0.0,
                0.0,
                100.0,
                0.0,
                0.0,
                0.0,
                0.0,
                1.0
            ],
            "children": [
                7
            ]
        },
        {
            "name": "kalmar_LOD1_$AssimpFbx$_GeometricTranslation",
            "matrix": [
                1.0,
                0.0,
                0.0,
                0.0,
                0.0,
                1.0,
                0.0,
                0.0,
                0.0,
                0.0,
                1.0,
                0.0,
                -5276.7197265625,
                1433.876953125,
                -655.295654296875,
                1.0
            ],
            "children": [
                8
            ]
        },
        {
            "name": "kalmar_LOD1",
            "mesh": 1
        },
        {
            "name": "kalmar_LOD2_$AssimpFbx$_PreRotation",
            "matrix": [
                1.0,
                0.0,
                0.0,
                0.0,
                0.0,
                -4.371138828673793e-8,
                -1.0,
                0.0,
                0.0,
                1.0,
                -4.371138828673793e-8,
                0.0,
                0.0,
                0.0,
                0.0,
                1.0
            ],
            "children": [
                10
            ]
        },
        {
            "name": "kalmar_LOD2_$AssimpFbx$_Scaling",
            "matrix": [
                100.0,
                0.0,
                0.0,
                0.0,
                0.0,
                100.0,
                0.0,
                0.0,
                0.0,
                0.0,
                100.0,
                0.0,
                0.0,
                0.0,
                0.0,
                1.0
            ],
            "children": [
                11
            ]
        },
        {
            "name": "kalmar_LOD2_$AssimpFbx$_GeometricTranslation",
            "matrix": [
                1.0,
                0.0,
                0.0,
                0.0,
                0.0,
                1.0,
                0.0,
                0.0,
                0.0,
                0.0,
                1.0,
                0.0,
                -5276.7197265625,
                1433.876953125,
                -655.295654296875,
                1.0
            ],
            "children": [
                12
            ]
        },
        {
            "name": "kalmar_LOD2",
            "mesh": 2
        }
    ],
    "scenes": [
        {
            "nodes": [
                0
            ]
        }
    ],
    "scene": 0
}